<mxfile host="Electron" agent="Mozilla/5.0 (Windows NT 10.0; Win64; x64) AppleWebKit/537.36 (KHTML, like Gecko) draw.io/24.7.17 Chrome/128.0.6613.36 Electron/32.0.1 Safari/537.36" version="24.7.17">
  <diagram name="Page-1" id="2FNYmYsBMbGa0UGhw50T">
    <mxGraphModel dx="1434" dy="844" grid="1" gridSize="10" guides="1" tooltips="1" connect="1" arrows="1" fold="1" page="1" pageScale="1" pageWidth="850" pageHeight="1100" math="0" shadow="0">
      <root>
        <mxCell id="0" />
        <mxCell id="1" parent="0" />
        <mxCell id="Qtmw9_Csoa64nNfkD8jf-22" value="" style="rounded=0;whiteSpace=wrap;html=1;fillColor=#60a917;fontColor=#ffffff;strokeColor=#2D7600;" parent="1" vertex="1">
          <mxGeometry x="75" y="240" width="700" height="370" as="geometry" />
        </mxCell>
        <mxCell id="Qtmw9_Csoa64nNfkD8jf-24" value="&lt;font style=&quot;font-size: 16px;&quot;&gt;Chose Option&lt;/font&gt;" style="text;html=1;align=center;verticalAlign=middle;whiteSpace=wrap;rounded=0;fillColor=#008a00;fontColor=#ffffff;strokeColor=#005700;" parent="1" vertex="1">
          <mxGeometry x="342.5" y="290" width="165" height="30" as="geometry" />
        </mxCell>
        <mxCell id="Qtmw9_Csoa64nNfkD8jf-25" value="&lt;font color=&quot;#000000&quot;&gt;New Client&amp;nbsp;&lt;/font&gt;&lt;div&gt;&lt;font color=&quot;#000000&quot;&gt;Entry&lt;/font&gt;&lt;/div&gt;" style="rounded=0;whiteSpace=wrap;html=1;fillColor=#fff2cc;gradientColor=#ffd966;strokeColor=#d6b656;" parent="1" vertex="1">
          <mxGeometry x="205" y="395" width="120" height="60" as="geometry" />
        </mxCell>
        <mxCell id="Qtmw9_Csoa64nNfkD8jf-26" value="&lt;font color=&quot;#000000&quot;&gt;Existing Client&lt;/font&gt;&lt;div&gt;&lt;font color=&quot;#000000&quot;&gt;Update&lt;/font&gt;&lt;/div&gt;" style="rounded=0;whiteSpace=wrap;html=1;fillColor=#fff2cc;gradientColor=#ffd966;strokeColor=#d6b656;" parent="1" vertex="1">
          <mxGeometry x="507.5" y="395" width="120" height="60" as="geometry" />
        </mxCell>
      </root>
    </mxGraphModel>
  </diagram>
</mxfile>
